<mxfile host="app.diagrams.net" modified="2023-08-24T19:05:49.603Z" agent="Mozilla/5.0 (Windows NT 10.0; Win64; x64) AppleWebKit/537.36 (KHTML, like Gecko) Chrome/116.0.0.0 Safari/537.36" version="21.4.0" etag="oiUmgRe62UWvVJJ1wedZ" type="github">
  <diagram name="Page-1" id="ZNQh0zSQsQ9tvnZwubGB">
    <mxGraphModel>
      <root>
        <mxCell id="0" />
        <mxCell id="1" parent="0" />
      </root>
    </mxGraphModel>
  </diagram>
</mxfile>
